<svg xmlns="http://www.w3.org/2000/svg" viewBox="0 0 359 207" width="359" height="207">
    <rect width="359" height="207" rx="30" fill="#212931"/>
    <path fill="#F2ECE0" d="M82.096100,155.929565 C73.283745,135.303802 64.597626,115.037300 55.911510,94.770805 C55.604134,94.822037 55.296757,94.873268 54.989380,94.924500 C54.989380,120.059166 54.989380,145.193832 54.989380,170.684631 C46.554016,170.684631 38.647636,170.684631 30.355465,170.684631 C30.355465,129.162201 30.355465,87.482193 30.355465,45.256336 C38.043102,45.256336 45.667206,45.062675 53.261913,45.448132 C54.518795,45.511921 56.065269,47.927082 56.771896,49.560951 C66.602707,72.291756 76.308525,95.076614 86.052902,117.844826 C86.619370,119.168411 87.254723,120.462509 88.848984,121.616722 C88.848984,96.352142 88.848984,71.087563 88.848984,45.528206 C97.404266,45.528206 105.307098,45.528206 113.565750,45.528206 C113.565750,87.230789 113.565750,128.773544 113.565750,171.033615 C105.840134,171.033615 98.080719,171.136887 90.331154,170.907440 C89.322868,170.877579 88.010956,169.306381 87.448959,168.152405 C85.558311,164.270172 83.942993,160.253860 82.096100,155.929565 z"/>
    <path fill="#F2ECE0" d="M173.423294,129.483276 C181.089584,126.161385 188.425659,123.033524 196.788040,119.468086 C189.452682,116.319313 182.998215,113.547371 176.542725,110.777847 C164.468124,105.597649 152.430344,100.328239 140.288803,95.309990 C137.611084,94.203255 136.357269,92.999199 136.490051,89.918579 C136.753067,83.816612 136.567749,77.695320 136.567749,70.930740 C154.794235,78.717361 172.186264,86.150345 189.580795,93.577454 C197.837708,97.102989 206.044235,100.756462 214.387329,104.065117 C217.525009,105.309441 218.620926,106.987152 218.465515,110.368851 C218.167465,116.854729 218.520813,123.369492 218.270416,129.859406 C218.214600,131.305862 217.120697,133.483994 215.929626,134.001450 C189.859482,145.327774 163.708023,156.466965 136.653732,168.034714 C136.653732,160.403259 136.557739,153.344574 136.782211,146.296082 C136.808563,145.468414 138.479401,144.421097 139.589233,143.942001 C150.733063,139.131210 161.919006,134.417999 173.423294,129.483276 z"/>
    <path fill="#E05742" d="M307.999878,192.504181 C292.721802,192.503693 277.943756,192.503693 262.863922,192.503693 C262.863922,184.929581 262.863922,178.022110 262.863922,170.721680 C290.184082,170.721680 317.238251,170.721680 344.703918,170.721680 C344.703918,177.769714 344.703918,184.664230 344.703918,192.504684 C332.660248,192.504684 320.580048,192.504684 307.999878,192.504181 z"/>
</svg>
